<?xml version="1.0" encoding="UTF-8"?>
<svg id="Layer_1" xmlns="http://www.w3.org/2000/svg" version="1.1" viewBox="0 0 746.36 211.04">
  <!-- Generator: Adobe Illustrator 30.1.0, SVG Export Plug-In . SVG Version: 2.1.1 Build 136)  -->
  <defs>
    <style>
      .st0 {
        fill: #d32f2f;
      }

      .st1 {
        fill: #0288d1;
      }

      .st2 {
        fill: #fff;
      }

      .st3 {
        fill: #f57c00;
      }

      .st4 {
        fill: #231f20;
      }

      .st5 {
        fill: #fbc02d;
      }

      .st6 {
        fill: #262262;
      }

      .st7 {
        fill: #388e3c;
      }
    </style>
  </defs>
  <g>
    <path class="st4" d="M403.54,162.37l-.05,5.74h-19v10.94h17.22v5.68h-17.22v15.54h-6.39v-37.9h25.44Z"/>
    <path class="st4" d="M431.15,173.09c2.27,1.23,4.04,2.94,5.31,5.14,1.26,2.2,1.89,4.73,1.89,7.58s-.63,5.44-1.89,7.66c-1.26,2.22-3.03,3.94-5.31,5.17-2.27,1.23-4.87,1.84-7.8,1.84s-5.58-.61-7.85-1.84c-2.27-1.23-4.04-2.95-5.31-5.17s-1.89-4.77-1.89-7.66.63-5.38,1.89-7.58c1.26-2.2,3.03-3.92,5.31-5.14,2.27-1.23,4.89-1.84,7.85-1.84s5.52.61,7.8,1.84ZM416.99,179.18c-1.64,1.75-2.46,4-2.46,6.74s.82,5.04,2.46,6.77c1.64,1.73,3.76,2.6,6.36,2.6s4.71-.87,6.33-2.6c1.62-1.73,2.44-3.99,2.44-6.77s-.82-4.99-2.46-6.74c-1.64-1.75-3.75-2.62-6.31-2.62s-4.72.88-6.36,2.62Z"/>
    <path class="st4" d="M457.24,172.76c1.7-1.01,3.68-1.52,5.96-1.52v5.96c-2.85-.14-5.16.52-6.93,2-1.77,1.48-2.78,3.48-3.03,6.01v15.05h-6.23v-28.8h6.23v5.74c.97-1.95,2.31-3.43,4.01-4.44Z"/>
    <path class="st4" d="M514.74,162.37v5.74h-20.68v10.29h18.52v5.68h-18.52v10.45h21.33v5.74h-27.72v-37.9h27.07Z"/>
    <path class="st4" d="M526.92,171.46l8.01,22.68,7.9-22.68h6.23l-11.04,28.8h-6.44l-11.15-28.8h6.5Z"/>
    <path class="st4" d="M577.62,175.09c2.26,2.56,3.38,6.17,3.38,10.83,0,.47-.04,1.25-.11,2.33h-21.76c.5,2.24,1.55,4,3.14,5.28,1.59,1.28,3.52,1.92,5.79,1.92,1.55,0,3.03-.29,4.44-.87,1.41-.58,2.63-1.41,3.68-2.49l3.3,3.52c-1.44,1.55-3.18,2.75-5.2,3.6-2.02.85-4.26,1.27-6.71,1.27-2.92,0-5.5-.61-7.71-1.84-2.22-1.23-3.94-2.94-5.17-5.14-1.23-2.2-1.84-4.73-1.84-7.58s.61-5.39,1.84-7.61c1.23-2.22,2.95-3.95,5.17-5.2,2.22-1.25,4.74-1.87,7.55-1.87,4.55,0,7.95,1.28,10.21,3.84ZM575.48,183.7c-.11-2.31-.88-4.13-2.33-5.47-1.44-1.33-3.34-2-5.68-2s-4.17.67-5.68,2c-1.52,1.34-2.44,3.16-2.76,5.47h16.46Z"/>
    <path class="st4" d="M599.79,172.76c1.7-1.01,3.68-1.52,5.96-1.52v5.96c-2.85-.14-5.16.52-6.93,2-1.77,1.48-2.78,3.48-3.03,6.01v15.05h-6.23v-28.8h6.23v5.74c.97-1.95,2.31-3.43,4.01-4.44Z"/>
    <path class="st4" d="M620.63,209.33c-1.59,1.14-3.46,1.71-5.63,1.71-1.3,0-2.48-.2-3.55-.6-1.07-.4-2.1-1.01-3.11-1.84l2.65-4.82c.68.5,1.32.87,1.89,1.08.58.22,1.19.33,1.84.33,1.95,0,3.41-1.07,4.38-3.19l.97-2.17-11.91-28.37h6.44l8.61,21.82,8.01-21.82h6.23l-13.1,32.75c-.9,2.27-2.15,3.98-3.74,5.12Z"/>
    <path class="st4" d="M664.1,173.09c2.27,1.23,4.04,2.94,5.3,5.14,1.26,2.2,1.9,4.73,1.9,7.58s-.63,5.44-1.9,7.66-3.03,3.94-5.3,5.17c-2.27,1.23-4.87,1.84-7.8,1.84s-5.58-.61-7.85-1.84c-2.27-1.23-4.04-2.95-5.3-5.17-1.26-2.22-1.9-4.77-1.9-7.66s.63-5.38,1.9-7.58c1.26-2.2,3.03-3.92,5.3-5.14,2.27-1.23,4.89-1.84,7.85-1.84s5.52.61,7.8,1.84ZM649.95,179.18c-1.64,1.75-2.46,4-2.46,6.74s.82,5.04,2.46,6.77c1.64,1.73,3.76,2.6,6.36,2.6s4.71-.87,6.33-2.6,2.44-3.99,2.44-6.77-.82-4.99-2.46-6.74c-1.64-1.75-3.75-2.62-6.31-2.62s-4.72.88-6.36,2.62Z"/>
    <path class="st4" d="M704.68,174.2c1.89,1.97,2.84,4.68,2.84,8.15v17.92h-6.23v-16.19c0-2.17-.61-3.87-1.84-5.12-1.23-1.25-2.92-1.87-5.09-1.87-2.31.04-4.2.78-5.66,2.22-1.46,1.44-2.3,3.32-2.52,5.63v15.32h-6.23v-28.8h6.23v5.52c1.95-3.83,5.49-5.74,10.61-5.74,3.36,0,5.98.98,7.88,2.95Z"/>
    <path class="st4" d="M740.08,175.09c2.25,2.56,3.38,6.17,3.38,10.83,0,.47-.04,1.25-.11,2.33h-21.76c.5,2.24,1.55,4,3.14,5.28,1.59,1.28,3.52,1.92,5.79,1.92,1.55,0,3.03-.29,4.44-.87,1.41-.58,2.63-1.41,3.68-2.49l3.3,3.52c-1.44,1.55-3.18,2.75-5.2,3.6-2.02.85-4.26,1.27-6.71,1.27-2.92,0-5.5-.61-7.71-1.84-2.22-1.23-3.94-2.94-5.17-5.14-1.23-2.2-1.84-4.73-1.84-7.58s.61-5.39,1.84-7.61c1.23-2.22,2.95-3.95,5.17-5.2,2.22-1.25,4.74-1.87,7.55-1.87,4.55,0,7.95,1.28,10.21,3.84ZM737.95,183.7c-.11-2.31-.88-4.13-2.33-5.47-1.44-1.33-3.34-2-5.68-2s-4.17.67-5.68,2c-1.52,1.34-2.44,3.16-2.76,5.47h16.46Z"/>
  </g>
  <g>
    <rect class="st6" x="621.31" y="1" width="124.05" height="148.89"/>
    <path class="st4" d="M746.36,150.89h-126.05V0h126.05v150.89ZM622.31,148.89h122.05V2h-122.05v146.89Z"/>
  </g>
  <g>
    <rect class="st1" x="497.27" y="1" width="124.05" height="148.89"/>
    <path class="st4" d="M622.31,150.89h-126.05V0h126.05v150.89ZM498.27,148.89h122.05V2h-122.05v146.89Z"/>
  </g>
  <g>
    <rect class="st7" x="373.22" y="1" width="124.05" height="148.89"/>
    <path class="st4" d="M498.27,150.89h-126.05V0h126.05v150.89ZM374.22,148.89h122.05V2h-122.05v146.89Z"/>
  </g>
  <g>
    <rect class="st0" x="249.17" y="1.85" width="124.05" height="148.89"/>
    <path class="st4" d="M374.22,150.89h-126.05V0h126.05v150.89ZM250.17,148.89h122.05V2h-122.05v146.89Z"/>
  </g>
  <g>
    <rect class="st3" x="125.05" y="1.85" width="124.05" height="148.89"/>
    <path class="st4" d="M250.09,150.89h-126.05V0h126.05v150.89ZM126.05,148.89h122.05V2h-122.05v146.89Z"/>
  </g>
  <g>
    <rect class="st5" x="1" y="1.85" width="124.05" height="148.89"/>
    <path class="st4" d="M126.05,150.89H0V0h126.05v150.89ZM2,148.89h122.05V2H2v146.89Z"/>
  </g>
  <path class="st2" d="M80.29,50.4c-3.8-1.75-7.64-2.63-11.51-2.63-5.04,0-9.67,1.21-13.87,3.62-4.2,2.41-7.51,5.72-9.92,9.92-2.41,4.2-3.62,8.83-3.62,13.87s1.22,9.56,3.67,13.76c2.45,4.2,5.76,7.53,9.92,9.98,4.17,2.45,8.77,3.67,13.81,3.67,3.8,0,7.58-.82,11.35-2.47,3.76-1.64,7.11-3.89,10.03-6.74l7.67,8.55c-3.95,3.95-8.55,7.07-13.81,9.37-5.26,2.3-10.56,3.45-15.9,3.45-7.38,0-14.12-1.75-20.23-5.26-6.1-3.51-10.91-8.26-14.42-14.25-3.51-5.99-5.26-12.64-5.26-19.95s1.77-13.85,5.32-19.84c3.54-5.99,8.4-10.71,14.58-14.14,6.17-3.43,12.99-5.15,20.44-5.15,5.41,0,10.69,1.08,15.84,3.23,5.15,2.16,9.59,5.1,13.32,8.83l-7.56,9.43c-2.78-3.07-6.07-5.48-9.87-7.24Z"/>
  <path class="st2" d="M206.25,96.49h-38.7l-7.34,17.32h-13.48l33.87-76.74h13.26l33.54,76.74h-13.81l-7.34-17.32ZM201.32,84.98l-14.47-34.09-14.47,34.09h28.94Z"/>
  <path class="st2" d="M328.19,113.81l-14.03-23.24c-.73.07-1.9.11-3.51.11h-18.2v23.13h-12.94V37.08h31.13c9.79,0,17.39,2.29,22.8,6.85,5.41,4.57,8.11,11.02,8.11,19.35,0,6.14-1.37,11.33-4.11,15.57-2.74,4.24-6.67,7.34-11.78,9.32l17.21,25.65h-14.69ZM310.65,79.06c5.99,0,10.6-1.3,13.81-3.89,3.21-2.59,4.82-6.45,4.82-11.57s-1.61-8.7-4.82-11.18c-3.22-2.48-7.82-3.73-13.81-3.73h-18.2v30.37h18.2Z"/>
  <path class="st2" d="M461.99,37.08v11.62h-41.88v20.83h37.49v11.51h-37.49v21.16h43.19v11.62h-56.13V37.08h54.81Z"/>
  <path class="st2" d="M586.04,37.08v11.62h-41.88v20.83h37.49v11.51h-37.49v21.16h43.19v11.62h-56.13V37.08h54.81Z"/>
  <path class="st2" d="M700.33,113.81l-14.03-23.24c-.73.07-1.9.11-3.51.11h-18.2v23.13h-12.94V37.08h31.13c9.79,0,17.39,2.29,22.8,6.85,5.41,4.57,8.11,11.02,8.11,19.35,0,6.14-1.37,11.33-4.11,15.57-2.74,4.24-6.67,7.34-11.78,9.32l17.21,25.65h-14.69ZM682.79,79.06c5.99,0,10.6-1.3,13.81-3.89,3.21-2.59,4.82-6.45,4.82-11.57s-1.61-8.7-4.82-11.18c-3.22-2.48-7.82-3.73-13.81-3.73h-18.2v30.37h18.2Z"/>
</svg>